<svg width="209" height="36" viewBox="0 0 209 36" fill="none" xmlns="http://www.w3.org/2000/svg">
  <path
    d="M16.72 0.5H192.28C201.204 0.5 208.5 8.29964 208.5 18C208.5 27.7004 201.204 35.5 192.28 35.5H16.72C7.79603 35.5 0.5 27.7004 0.5 18C0.5 8.29964 7.79604 0.5 16.72 0.5Z"
    fill="url(#paint0_linear_149_10)"
  />
  <path
    d="M16.72 0.5H192.28C201.204 0.5 208.5 8.29964 208.5 18C208.5 27.7004 201.204 35.5 192.28 35.5H16.72C7.79603 35.5 0.5 27.7004 0.5 18C0.5 8.29964 7.79604 0.5 16.72 0.5Z"
    fill="url(#paint1_linear_149_10)"
  />
  <path
    d="M16.72 0.5H192.28C201.204 0.5 208.5 8.29964 208.5 18C208.5 27.7004 201.204 35.5 192.28 35.5H16.72C7.79603 35.5 0.5 27.7004 0.5 18C0.5 8.29964 7.79604 0.5 16.72 0.5Z"
    stroke="#141C2E"
  />
  <path
    d="M46.8161 24.2071C45.8381 24.2071 44.9752 23.9712 44.2273 23.4995C43.4794 23.0163 42.8927 22.3374 42.467 21.463C42.0528 20.5771 41.8457 19.5243 41.8457 18.3048C41.8457 17.0852 42.0528 16.0439 42.467 15.181C42.8927 14.3181 43.4794 13.6565 44.2273 13.1963C44.9752 12.7361 45.8381 12.506 46.8161 12.506C47.8055 12.506 48.6742 12.7361 49.4221 13.1963C50.1699 13.6565 50.7509 14.3181 51.1651 15.181C51.5909 16.0439 51.8037 17.0852 51.8037 18.3048C51.8037 19.5243 51.5909 20.5771 51.1651 21.463C50.7509 22.3374 50.1699 23.0163 49.4221 23.4995C48.6742 23.9712 47.8055 24.2071 46.8161 24.2071ZM46.8161 22.464C47.702 22.464 48.4096 22.0901 48.9388 21.3422C49.4681 20.5829 49.7327 19.5704 49.7327 18.3048C49.7327 17.0391 49.4681 16.0497 48.9388 15.3363C48.4096 14.6115 47.702 14.2491 46.8161 14.2491C45.9301 14.2491 45.2225 14.6115 44.6933 15.3363C44.164 16.0497 43.8994 17.0391 43.8994 18.3048C43.8994 19.5704 44.164 20.5829 44.6933 21.3422C45.2225 22.0901 45.9301 22.464 46.8161 22.464ZM53.889 27.3481V15.5262H55.5285L55.6666 16.4236H55.7356C56.0923 16.1245 56.4892 15.8656 56.9265 15.647C57.3752 15.4284 57.8296 15.3191 58.2899 15.3191C59.3484 15.3191 60.1653 15.7103 60.7405 16.4926C61.3273 17.275 61.6207 18.322 61.6207 19.6336C61.6207 20.6001 61.4481 21.4285 61.103 22.1188C60.7578 22.7977 60.3091 23.3154 59.7568 23.6721C59.2161 24.0288 58.6293 24.2071 57.9965 24.2071C57.6283 24.2071 57.2601 24.1266 56.8919 23.9655C56.5238 23.7929 56.1671 23.5628 55.8219 23.2752L55.8737 24.6903V27.3481H53.889ZM57.5823 22.5676C58.146 22.5676 58.6178 22.3202 58.9975 21.8255C59.3771 21.3307 59.567 20.6059 59.567 19.6509C59.567 18.7995 59.4232 18.1379 59.1355 17.6662C58.8479 17.1945 58.3819 16.9586 57.7376 16.9586C57.1393 16.9586 56.518 17.275 55.8737 17.9078V21.86C56.1843 22.1131 56.4835 22.2972 56.7711 22.4122C57.0588 22.5158 57.3292 22.5676 57.5823 22.5676ZM67.2548 24.2071C66.4724 24.2071 65.7648 24.0345 65.132 23.6894C64.4992 23.3327 63.9987 22.8264 63.6305 22.1706C63.2623 21.5033 63.0782 20.7037 63.0782 19.7717C63.0782 18.8513 63.2623 18.0574 63.6305 17.3901C64.0102 16.7227 64.4992 16.2107 65.0975 15.8541C65.6957 15.4974 66.3228 15.3191 66.9786 15.3191C67.7495 15.3191 68.3938 15.4917 68.9115 15.8368C69.4293 16.1705 69.8205 16.6422 70.0851 17.252C70.3497 17.8503 70.4821 18.5464 70.4821 19.3403C70.4821 19.7545 70.4533 20.0766 70.3958 20.3067H65.0112C65.1032 21.0546 65.3736 21.6356 65.8223 22.0498C66.271 22.464 66.8348 22.6711 67.5136 22.6711C67.8818 22.6711 68.2212 22.6193 68.5319 22.5158C68.854 22.4007 69.1704 22.2454 69.4811 22.0498L70.1541 23.2924C69.7515 23.557 69.3027 23.7756 68.808 23.9482C68.3133 24.1208 67.7955 24.2071 67.2548 24.2071ZM64.9939 18.9606H68.7562C68.7562 18.3048 68.6124 17.7928 68.3248 17.4246C68.0371 17.0449 67.6057 16.8551 67.0304 16.8551C66.5357 16.8551 66.0927 17.0391 65.7015 17.4073C65.3218 17.764 65.086 18.2817 64.9939 18.9606ZM72.3776 24V15.5262H74.0172L74.1552 16.6652H74.2243C74.604 16.297 75.0182 15.9806 75.4669 15.716C75.9156 15.4514 76.4276 15.3191 77.0029 15.3191C77.9118 15.3191 78.5734 15.6125 78.9876 16.1992C79.4018 16.786 79.6089 17.6144 79.6089 18.6844V24H77.6242V18.9433C77.6242 18.2415 77.5206 17.7467 77.3135 17.4591C77.1064 17.1715 76.767 17.0276 76.2953 17.0276C75.9271 17.0276 75.5992 17.1197 75.3116 17.3038C75.0354 17.4764 74.719 17.7352 74.3623 18.0804V24H72.3776ZM87.5436 24.2071C86.8073 24.2071 86.2033 23.977 85.7315 23.5168C85.2713 23.0565 85.0412 22.4583 85.0412 21.7219C85.0412 20.813 85.4381 20.1111 86.232 19.6164C87.0259 19.1101 88.2915 18.765 90.0288 18.5809C90.0173 18.1322 89.8965 17.7467 89.6664 17.4246C89.4478 17.0909 89.0509 16.9241 88.4756 16.9241C88.0614 16.9241 87.653 17.0046 87.2503 17.1657C86.8591 17.3268 86.4736 17.5224 86.094 17.7525L85.3691 16.4236C85.8408 16.1245 86.3701 15.8656 86.9569 15.647C87.5552 15.4284 88.188 15.3191 88.8553 15.3191C89.9138 15.3191 90.7019 15.6355 91.2197 16.2683C91.7489 16.8896 92.0136 17.7928 92.0136 18.9778V24H90.374L90.2359 23.0681H90.1669C89.7872 23.3902 89.3788 23.6606 88.9416 23.8792C88.5159 24.0978 88.0499 24.2071 87.5436 24.2071ZM88.1822 22.6539C88.5274 22.6539 88.838 22.5733 89.1142 22.4122C89.4018 22.2397 89.7067 22.0095 90.0288 21.7219V19.8235C88.8783 19.9731 88.0787 20.1974 87.6299 20.4966C87.1812 20.7842 86.9569 21.1409 86.9569 21.5666C86.9569 21.9463 87.0719 22.2224 87.302 22.395C87.5321 22.5676 87.8255 22.6539 88.1822 22.6539ZM98.0163 24V12.7131H101.572C102.411 12.7131 103.159 12.8224 103.815 13.041C104.471 13.2596 104.989 13.622 105.368 14.1282C105.748 14.6345 105.938 15.3248 105.938 16.1992C105.938 17.0276 105.748 17.7122 105.368 18.253C104.989 18.7937 104.477 19.1964 103.832 19.4611C103.188 19.7257 102.457 19.858 101.641 19.858H100.018V24H98.0163ZM100.018 18.253H101.485C103.142 18.253 103.97 17.5684 103.97 16.1992C103.97 15.4859 103.752 14.9969 103.315 14.7323C102.889 14.4562 102.256 14.3181 101.416 14.3181H100.018V18.253ZM110.408 24.2071C109.499 24.2071 108.838 23.9137 108.424 23.3269C108.009 22.7401 107.802 21.9117 107.802 20.8417V15.5262H109.787V20.5829C109.787 21.2847 109.891 21.7794 110.098 22.0671C110.305 22.3547 110.638 22.4985 111.099 22.4985C111.467 22.4985 111.789 22.4065 112.065 22.2224C112.353 22.0383 112.658 21.7392 112.98 21.325V15.5262H114.965V24H113.342L113.187 22.7574H113.135C112.767 23.1946 112.364 23.5455 111.927 23.8102C111.49 24.0748 110.984 24.2071 110.408 24.2071ZM119.411 24.2071C118.71 24.2071 118.209 23.9942 117.91 23.5685C117.622 23.1428 117.478 22.5618 117.478 21.8255V11.8156H119.463V21.929C119.463 22.1706 119.509 22.3432 119.601 22.4468C119.693 22.5388 119.791 22.5848 119.895 22.5848C119.941 22.5848 119.981 22.5848 120.015 22.5848C120.061 22.5733 120.125 22.5618 120.205 22.5503L120.464 24.0345C120.349 24.0805 120.2 24.1208 120.015 24.1553C119.843 24.1898 119.642 24.2071 119.411 24.2071ZM124.097 24.2071C123.395 24.2071 122.894 23.9942 122.595 23.5685C122.308 23.1428 122.164 22.5618 122.164 21.8255V11.8156H124.149V21.929C124.149 22.1706 124.195 22.3432 124.287 22.4468C124.379 22.5388 124.476 22.5848 124.58 22.5848C124.626 22.5848 124.666 22.5848 124.701 22.5848C124.747 22.5733 124.81 22.5618 124.891 22.5503L125.15 24.0345C125.034 24.0805 124.885 24.1208 124.701 24.1553C124.528 24.1898 124.327 24.2071 124.097 24.2071ZM130.477 24V12.7131H134.291C135.073 12.7131 135.775 12.8166 136.396 13.0237C137.029 13.2308 137.524 13.5817 137.881 14.0765C138.249 14.5597 138.433 15.2213 138.433 16.0612C138.433 16.9241 138.226 17.6202 137.812 18.1494C137.409 18.6787 136.868 19.0584 136.189 19.2885L138.882 24H136.638L134.205 19.5819H132.479V24H130.477ZM132.479 17.9941H134.084C134.855 17.9941 135.441 17.833 135.844 17.5109C136.258 17.1772 136.465 16.694 136.465 16.0612C136.465 15.4169 136.258 14.9681 135.844 14.715C135.441 14.4504 134.855 14.3181 134.084 14.3181H132.479V17.9941ZM143.973 24.2071C143.191 24.2071 142.483 24.0345 141.851 23.6894C141.218 23.3327 140.717 22.8264 140.349 22.1706C139.981 21.5033 139.797 20.7037 139.797 19.7717C139.797 18.8513 139.981 18.0574 140.349 17.3901C140.729 16.7227 141.218 16.2107 141.816 15.8541C142.414 15.4974 143.041 15.3191 143.697 15.3191C144.468 15.3191 145.112 15.4917 145.63 15.8368C146.148 16.1705 146.539 16.6422 146.804 17.252C147.068 17.8503 147.201 18.5464 147.201 19.3403C147.201 19.7545 147.172 20.0766 147.114 20.3067H141.73C141.822 21.0546 142.092 21.6356 142.541 22.0498C142.99 22.464 143.553 22.6711 144.232 22.6711C144.6 22.6711 144.94 22.6193 145.25 22.5158C145.573 22.4007 145.889 22.2454 146.2 22.0498L146.873 23.2924C146.47 23.557 146.021 23.7756 145.527 23.9482C145.032 24.1208 144.514 24.2071 143.973 24.2071ZM141.713 18.9606H145.475C145.475 18.3048 145.331 17.7928 145.043 17.4246C144.756 17.0449 144.324 16.8551 143.749 16.8551C143.254 16.8551 142.811 17.0391 142.42 17.4073C142.04 17.764 141.805 18.2817 141.713 18.9606ZM154.326 27.3481V24.5695L154.395 23.1543C154.084 23.4535 153.727 23.7066 153.325 23.9137C152.922 24.1093 152.502 24.2071 152.065 24.2071C151.006 24.2071 150.16 23.8159 149.528 23.0335C148.895 22.2512 148.578 21.1639 148.578 19.7717C148.578 18.8513 148.745 18.0574 149.079 17.3901C149.424 16.7227 149.873 16.2107 150.425 15.8541C150.977 15.4974 151.558 15.3191 152.168 15.3191C152.64 15.3191 153.06 15.4054 153.428 15.5779C153.796 15.739 154.159 15.9921 154.515 16.3373H154.567L154.74 15.5262H156.31V27.3481H154.326ZM152.548 22.5676C153.181 22.5676 153.773 22.2512 154.326 21.6184V17.6662C154.038 17.4016 153.75 17.2175 153.463 17.1139C153.175 17.0104 152.887 16.9586 152.6 16.9586C152.059 16.9586 151.593 17.206 151.202 17.7007C150.822 18.1839 150.632 18.8685 150.632 19.7545C150.632 20.6634 150.799 21.3595 151.133 21.8427C151.466 22.3259 151.938 22.5676 152.548 22.5676ZM161.357 24.2071C160.449 24.2071 159.787 23.9137 159.373 23.3269C158.959 22.7401 158.751 21.9117 158.751 20.8417V15.5262H160.736V20.5829C160.736 21.2847 160.84 21.7794 161.047 22.0671C161.254 22.3547 161.588 22.4985 162.048 22.4985C162.416 22.4985 162.738 22.4065 163.014 22.2224C163.302 22.0383 163.607 21.7392 163.929 21.325V15.5262H165.914V24H164.291L164.136 22.7574H164.084C163.716 23.1946 163.313 23.5455 162.876 23.8102C162.439 24.0748 161.933 24.2071 161.357 24.2071ZM172.052 24.2071C171.269 24.2071 170.562 24.0345 169.929 23.6894C169.296 23.3327 168.796 22.8264 168.428 22.1706C168.059 21.5033 167.875 20.7037 167.875 19.7717C167.875 18.8513 168.059 18.0574 168.428 17.3901C168.807 16.7227 169.296 16.2107 169.895 15.8541C170.493 15.4974 171.12 15.3191 171.776 15.3191C172.547 15.3191 173.191 15.4917 173.709 15.8368C174.226 16.1705 174.618 16.6422 174.882 17.252C175.147 17.8503 175.279 18.5464 175.279 19.3403C175.279 19.7545 175.25 20.0766 175.193 20.3067H169.808C169.9 21.0546 170.171 21.6356 170.619 22.0498C171.068 22.464 171.632 22.6711 172.311 22.6711C172.679 22.6711 173.018 22.6193 173.329 22.5158C173.651 22.4007 173.967 22.2454 174.278 22.0498L174.951 23.2924C174.549 23.557 174.1 23.7756 173.605 23.9482C173.11 24.1208 172.593 24.2071 172.052 24.2071ZM169.791 18.9606H173.553C173.553 18.3048 173.409 17.7928 173.122 17.4246C172.834 17.0449 172.403 16.8551 171.827 16.8551C171.333 16.8551 170.89 17.0391 170.499 17.4073C170.119 17.764 169.883 18.2817 169.791 18.9606ZM179.539 24.2071C178.964 24.2071 178.389 24.0978 177.813 23.8792C177.238 23.6491 176.743 23.3672 176.329 23.0335L177.261 21.7564C177.641 22.0441 178.02 22.2742 178.4 22.4468C178.78 22.6193 179.182 22.7056 179.608 22.7056C180.068 22.7056 180.408 22.6078 180.626 22.4122C180.845 22.2166 180.954 21.975 180.954 21.6874C180.954 21.4458 180.862 21.2502 180.678 21.1006C180.506 20.9395 180.281 20.8015 180.005 20.6864C179.729 20.5598 179.441 20.439 179.142 20.324C178.774 20.1859 178.406 20.0191 178.038 19.8235C177.681 19.6164 177.388 19.3575 177.157 19.0469C176.927 18.7247 176.812 18.3278 176.812 17.856C176.812 17.1082 177.088 16.4984 177.641 16.0267C178.193 15.5549 178.941 15.3191 179.884 15.3191C180.483 15.3191 181.018 15.4226 181.489 15.6297C181.961 15.8368 182.369 16.0727 182.715 16.3373L181.8 17.5454C181.501 17.3268 181.196 17.1542 180.885 17.0276C180.586 16.8896 180.27 16.8205 179.936 16.8205C179.51 16.8205 179.194 16.9126 178.987 17.0967C178.78 17.2693 178.676 17.4879 178.676 17.7525C178.676 18.0862 178.849 18.3393 179.194 18.5119C179.539 18.6844 179.942 18.8513 180.402 19.0123C180.793 19.1504 181.173 19.323 181.541 19.5301C181.909 19.7257 182.214 19.9846 182.456 20.3067C182.709 20.6289 182.835 21.0546 182.835 21.5838C182.835 22.3087 182.554 22.93 181.99 23.4477C181.426 23.954 180.609 24.2071 179.539 24.2071ZM187.256 24.2071C186.278 24.2071 185.582 23.9252 185.168 23.3614C184.765 22.7862 184.564 22.0441 184.564 21.1351V17.0967H183.355V15.6125L184.667 15.5262L184.909 13.2136H186.566V15.5262H188.723V17.0967H186.566V21.1351C186.566 22.1246 186.962 22.6193 187.756 22.6193C187.906 22.6193 188.061 22.6021 188.222 22.5676C188.383 22.5215 188.521 22.4755 188.637 22.4295L188.982 23.8965C188.752 23.977 188.487 24.046 188.188 24.1035C187.9 24.1726 187.59 24.2071 187.256 24.2071Z"
    fill="#2C3236"
  />
  <path
    d="M46.8161 24.2071C45.8381 24.2071 44.9752 23.9712 44.2273 23.4995C43.4794 23.0163 42.8927 22.3374 42.467 21.463C42.0528 20.5771 41.8457 19.5243 41.8457 18.3048C41.8457 17.0852 42.0528 16.0439 42.467 15.181C42.8927 14.3181 43.4794 13.6565 44.2273 13.1963C44.9752 12.7361 45.8381 12.506 46.8161 12.506C47.8055 12.506 48.6742 12.7361 49.4221 13.1963C50.1699 13.6565 50.7509 14.3181 51.1651 15.181C51.5909 16.0439 51.8037 17.0852 51.8037 18.3048C51.8037 19.5243 51.5909 20.5771 51.1651 21.463C50.7509 22.3374 50.1699 23.0163 49.4221 23.4995C48.6742 23.9712 47.8055 24.2071 46.8161 24.2071ZM46.8161 22.464C47.702 22.464 48.4096 22.0901 48.9388 21.3422C49.4681 20.5829 49.7327 19.5704 49.7327 18.3048C49.7327 17.0391 49.4681 16.0497 48.9388 15.3363C48.4096 14.6115 47.702 14.2491 46.8161 14.2491C45.9301 14.2491 45.2225 14.6115 44.6933 15.3363C44.164 16.0497 43.8994 17.0391 43.8994 18.3048C43.8994 19.5704 44.164 20.5829 44.6933 21.3422C45.2225 22.0901 45.9301 22.464 46.8161 22.464ZM53.889 27.3481V15.5262H55.5285L55.6666 16.4236H55.7356C56.0923 16.1245 56.4892 15.8656 56.9265 15.647C57.3752 15.4284 57.8296 15.3191 58.2899 15.3191C59.3484 15.3191 60.1653 15.7103 60.7405 16.4926C61.3273 17.275 61.6207 18.322 61.6207 19.6336C61.6207 20.6001 61.4481 21.4285 61.103 22.1188C60.7578 22.7977 60.3091 23.3154 59.7568 23.6721C59.2161 24.0288 58.6293 24.2071 57.9965 24.2071C57.6283 24.2071 57.2601 24.1266 56.8919 23.9655C56.5238 23.7929 56.1671 23.5628 55.8219 23.2752L55.8737 24.6903V27.3481H53.889ZM57.5823 22.5676C58.146 22.5676 58.6178 22.3202 58.9975 21.8255C59.3771 21.3307 59.567 20.6059 59.567 19.6509C59.567 18.7995 59.4232 18.1379 59.1355 17.6662C58.8479 17.1945 58.3819 16.9586 57.7376 16.9586C57.1393 16.9586 56.518 17.275 55.8737 17.9078V21.86C56.1843 22.1131 56.4835 22.2972 56.7711 22.4122C57.0588 22.5158 57.3292 22.5676 57.5823 22.5676ZM67.2548 24.2071C66.4724 24.2071 65.7648 24.0345 65.132 23.6894C64.4992 23.3327 63.9987 22.8264 63.6305 22.1706C63.2623 21.5033 63.0782 20.7037 63.0782 19.7717C63.0782 18.8513 63.2623 18.0574 63.6305 17.3901C64.0102 16.7227 64.4992 16.2107 65.0975 15.8541C65.6957 15.4974 66.3228 15.3191 66.9786 15.3191C67.7495 15.3191 68.3938 15.4917 68.9115 15.8368C69.4293 16.1705 69.8205 16.6422 70.0851 17.252C70.3497 17.8503 70.4821 18.5464 70.4821 19.3403C70.4821 19.7545 70.4533 20.0766 70.3958 20.3067H65.0112C65.1032 21.0546 65.3736 21.6356 65.8223 22.0498C66.271 22.464 66.8348 22.6711 67.5136 22.6711C67.8818 22.6711 68.2212 22.6193 68.5319 22.5158C68.854 22.4007 69.1704 22.2454 69.4811 22.0498L70.1541 23.2924C69.7515 23.557 69.3027 23.7756 68.808 23.9482C68.3133 24.1208 67.7955 24.2071 67.2548 24.2071ZM64.9939 18.9606H68.7562C68.7562 18.3048 68.6124 17.7928 68.3248 17.4246C68.0371 17.0449 67.6057 16.8551 67.0304 16.8551C66.5357 16.8551 66.0927 17.0391 65.7015 17.4073C65.3218 17.764 65.086 18.2817 64.9939 18.9606ZM72.3776 24V15.5262H74.0172L74.1552 16.6652H74.2243C74.604 16.297 75.0182 15.9806 75.4669 15.716C75.9156 15.4514 76.4276 15.3191 77.0029 15.3191C77.9118 15.3191 78.5734 15.6125 78.9876 16.1992C79.4018 16.786 79.6089 17.6144 79.6089 18.6844V24H77.6242V18.9433C77.6242 18.2415 77.5206 17.7467 77.3135 17.4591C77.1064 17.1715 76.767 17.0276 76.2953 17.0276C75.9271 17.0276 75.5992 17.1197 75.3116 17.3038C75.0354 17.4764 74.719 17.7352 74.3623 18.0804V24H72.3776ZM87.5436 24.2071C86.8073 24.2071 86.2033 23.977 85.7315 23.5168C85.2713 23.0565 85.0412 22.4583 85.0412 21.7219C85.0412 20.813 85.4381 20.1111 86.232 19.6164C87.0259 19.1101 88.2915 18.765 90.0288 18.5809C90.0173 18.1322 89.8965 17.7467 89.6664 17.4246C89.4478 17.0909 89.0509 16.9241 88.4756 16.9241C88.0614 16.9241 87.653 17.0046 87.2503 17.1657C86.8591 17.3268 86.4736 17.5224 86.094 17.7525L85.3691 16.4236C85.8408 16.1245 86.3701 15.8656 86.9569 15.647C87.5552 15.4284 88.188 15.3191 88.8553 15.3191C89.9138 15.3191 90.7019 15.6355 91.2197 16.2683C91.7489 16.8896 92.0136 17.7928 92.0136 18.9778V24H90.374L90.2359 23.0681H90.1669C89.7872 23.3902 89.3788 23.6606 88.9416 23.8792C88.5159 24.0978 88.0499 24.2071 87.5436 24.2071ZM88.1822 22.6539C88.5274 22.6539 88.838 22.5733 89.1142 22.4122C89.4018 22.2397 89.7067 22.0095 90.0288 21.7219V19.8235C88.8783 19.9731 88.0787 20.1974 87.6299 20.4966C87.1812 20.7842 86.9569 21.1409 86.9569 21.5666C86.9569 21.9463 87.0719 22.2224 87.302 22.395C87.5321 22.5676 87.8255 22.6539 88.1822 22.6539ZM98.0163 24V12.7131H101.572C102.411 12.7131 103.159 12.8224 103.815 13.041C104.471 13.2596 104.989 13.622 105.368 14.1282C105.748 14.6345 105.938 15.3248 105.938 16.1992C105.938 17.0276 105.748 17.7122 105.368 18.253C104.989 18.7937 104.477 19.1964 103.832 19.4611C103.188 19.7257 102.457 19.858 101.641 19.858H100.018V24H98.0163ZM100.018 18.253H101.485C103.142 18.253 103.97 17.5684 103.97 16.1992C103.97 15.4859 103.752 14.9969 103.315 14.7323C102.889 14.4562 102.256 14.3181 101.416 14.3181H100.018V18.253ZM110.408 24.2071C109.499 24.2071 108.838 23.9137 108.424 23.3269C108.009 22.7401 107.802 21.9117 107.802 20.8417V15.5262H109.787V20.5829C109.787 21.2847 109.891 21.7794 110.098 22.0671C110.305 22.3547 110.638 22.4985 111.099 22.4985C111.467 22.4985 111.789 22.4065 112.065 22.2224C112.353 22.0383 112.658 21.7392 112.98 21.325V15.5262H114.965V24H113.342L113.187 22.7574H113.135C112.767 23.1946 112.364 23.5455 111.927 23.8102C111.49 24.0748 110.984 24.2071 110.408 24.2071ZM119.411 24.2071C118.71 24.2071 118.209 23.9942 117.91 23.5685C117.622 23.1428 117.478 22.5618 117.478 21.8255V11.8156H119.463V21.929C119.463 22.1706 119.509 22.3432 119.601 22.4468C119.693 22.5388 119.791 22.5848 119.895 22.5848C119.941 22.5848 119.981 22.5848 120.015 22.5848C120.061 22.5733 120.125 22.5618 120.205 22.5503L120.464 24.0345C120.349 24.0805 120.2 24.1208 120.015 24.1553C119.843 24.1898 119.642 24.2071 119.411 24.2071ZM124.097 24.2071C123.395 24.2071 122.894 23.9942 122.595 23.5685C122.308 23.1428 122.164 22.5618 122.164 21.8255V11.8156H124.149V21.929C124.149 22.1706 124.195 22.3432 124.287 22.4468C124.379 22.5388 124.476 22.5848 124.58 22.5848C124.626 22.5848 124.666 22.5848 124.701 22.5848C124.747 22.5733 124.81 22.5618 124.891 22.5503L125.15 24.0345C125.034 24.0805 124.885 24.1208 124.701 24.1553C124.528 24.1898 124.327 24.2071 124.097 24.2071ZM130.477 24V12.7131H134.291C135.073 12.7131 135.775 12.8166 136.396 13.0237C137.029 13.2308 137.524 13.5817 137.881 14.0765C138.249 14.5597 138.433 15.2213 138.433 16.0612C138.433 16.9241 138.226 17.6202 137.812 18.1494C137.409 18.6787 136.868 19.0584 136.189 19.2885L138.882 24H136.638L134.205 19.5819H132.479V24H130.477ZM132.479 17.9941H134.084C134.855 17.9941 135.441 17.833 135.844 17.5109C136.258 17.1772 136.465 16.694 136.465 16.0612C136.465 15.4169 136.258 14.9681 135.844 14.715C135.441 14.4504 134.855 14.3181 134.084 14.3181H132.479V17.9941ZM143.973 24.2071C143.191 24.2071 142.483 24.0345 141.851 23.6894C141.218 23.3327 140.717 22.8264 140.349 22.1706C139.981 21.5033 139.797 20.7037 139.797 19.7717C139.797 18.8513 139.981 18.0574 140.349 17.3901C140.729 16.7227 141.218 16.2107 141.816 15.8541C142.414 15.4974 143.041 15.3191 143.697 15.3191C144.468 15.3191 145.112 15.4917 145.63 15.8368C146.148 16.1705 146.539 16.6422 146.804 17.252C147.068 17.8503 147.201 18.5464 147.201 19.3403C147.201 19.7545 147.172 20.0766 147.114 20.3067H141.73C141.822 21.0546 142.092 21.6356 142.541 22.0498C142.99 22.464 143.553 22.6711 144.232 22.6711C144.6 22.6711 144.94 22.6193 145.25 22.5158C145.573 22.4007 145.889 22.2454 146.2 22.0498L146.873 23.2924C146.47 23.557 146.021 23.7756 145.527 23.9482C145.032 24.1208 144.514 24.2071 143.973 24.2071ZM141.713 18.9606H145.475C145.475 18.3048 145.331 17.7928 145.043 17.4246C144.756 17.0449 144.324 16.8551 143.749 16.8551C143.254 16.8551 142.811 17.0391 142.42 17.4073C142.04 17.764 141.805 18.2817 141.713 18.9606ZM154.326 27.3481V24.5695L154.395 23.1543C154.084 23.4535 153.727 23.7066 153.325 23.9137C152.922 24.1093 152.502 24.2071 152.065 24.2071C151.006 24.2071 150.16 23.8159 149.528 23.0335C148.895 22.2512 148.578 21.1639 148.578 19.7717C148.578 18.8513 148.745 18.0574 149.079 17.3901C149.424 16.7227 149.873 16.2107 150.425 15.8541C150.977 15.4974 151.558 15.3191 152.168 15.3191C152.64 15.3191 153.06 15.4054 153.428 15.5779C153.796 15.739 154.159 15.9921 154.515 16.3373H154.567L154.74 15.5262H156.31V27.3481H154.326ZM152.548 22.5676C153.181 22.5676 153.773 22.2512 154.326 21.6184V17.6662C154.038 17.4016 153.75 17.2175 153.463 17.1139C153.175 17.0104 152.887 16.9586 152.6 16.9586C152.059 16.9586 151.593 17.206 151.202 17.7007C150.822 18.1839 150.632 18.8685 150.632 19.7545C150.632 20.6634 150.799 21.3595 151.133 21.8427C151.466 22.3259 151.938 22.5676 152.548 22.5676ZM161.357 24.2071C160.449 24.2071 159.787 23.9137 159.373 23.3269C158.959 22.7401 158.751 21.9117 158.751 20.8417V15.5262H160.736V20.5829C160.736 21.2847 160.84 21.7794 161.047 22.0671C161.254 22.3547 161.588 22.4985 162.048 22.4985C162.416 22.4985 162.738 22.4065 163.014 22.2224C163.302 22.0383 163.607 21.7392 163.929 21.325V15.5262H165.914V24H164.291L164.136 22.7574H164.084C163.716 23.1946 163.313 23.5455 162.876 23.8102C162.439 24.0748 161.933 24.2071 161.357 24.2071ZM172.052 24.2071C171.269 24.2071 170.562 24.0345 169.929 23.6894C169.296 23.3327 168.796 22.8264 168.428 22.1706C168.059 21.5033 167.875 20.7037 167.875 19.7717C167.875 18.8513 168.059 18.0574 168.428 17.3901C168.807 16.7227 169.296 16.2107 169.895 15.8541C170.493 15.4974 171.12 15.3191 171.776 15.3191C172.547 15.3191 173.191 15.4917 173.709 15.8368C174.226 16.1705 174.618 16.6422 174.882 17.252C175.147 17.8503 175.279 18.5464 175.279 19.3403C175.279 19.7545 175.25 20.0766 175.193 20.3067H169.808C169.9 21.0546 170.171 21.6356 170.619 22.0498C171.068 22.464 171.632 22.6711 172.311 22.6711C172.679 22.6711 173.018 22.6193 173.329 22.5158C173.651 22.4007 173.967 22.2454 174.278 22.0498L174.951 23.2924C174.549 23.557 174.1 23.7756 173.605 23.9482C173.11 24.1208 172.593 24.2071 172.052 24.2071ZM169.791 18.9606H173.553C173.553 18.3048 173.409 17.7928 173.122 17.4246C172.834 17.0449 172.403 16.8551 171.827 16.8551C171.333 16.8551 170.89 17.0391 170.499 17.4073C170.119 17.764 169.883 18.2817 169.791 18.9606ZM179.539 24.2071C178.964 24.2071 178.389 24.0978 177.813 23.8792C177.238 23.6491 176.743 23.3672 176.329 23.0335L177.261 21.7564C177.641 22.0441 178.02 22.2742 178.4 22.4468C178.78 22.6193 179.182 22.7056 179.608 22.7056C180.068 22.7056 180.408 22.6078 180.626 22.4122C180.845 22.2166 180.954 21.975 180.954 21.6874C180.954 21.4458 180.862 21.2502 180.678 21.1006C180.506 20.9395 180.281 20.8015 180.005 20.6864C179.729 20.5598 179.441 20.439 179.142 20.324C178.774 20.1859 178.406 20.0191 178.038 19.8235C177.681 19.6164 177.388 19.3575 177.157 19.0469C176.927 18.7247 176.812 18.3278 176.812 17.856C176.812 17.1082 177.088 16.4984 177.641 16.0267C178.193 15.5549 178.941 15.3191 179.884 15.3191C180.483 15.3191 181.018 15.4226 181.489 15.6297C181.961 15.8368 182.369 16.0727 182.715 16.3373L181.8 17.5454C181.501 17.3268 181.196 17.1542 180.885 17.0276C180.586 16.8896 180.27 16.8205 179.936 16.8205C179.51 16.8205 179.194 16.9126 178.987 17.0967C178.78 17.2693 178.676 17.4879 178.676 17.7525C178.676 18.0862 178.849 18.3393 179.194 18.5119C179.539 18.6844 179.942 18.8513 180.402 19.0123C180.793 19.1504 181.173 19.323 181.541 19.5301C181.909 19.7257 182.214 19.9846 182.456 20.3067C182.709 20.6289 182.835 21.0546 182.835 21.5838C182.835 22.3087 182.554 22.93 181.99 23.4477C181.426 23.954 180.609 24.2071 179.539 24.2071ZM187.256 24.2071C186.278 24.2071 185.582 23.9252 185.168 23.3614C184.765 22.7862 184.564 22.0441 184.564 21.1351V17.0967H183.355V15.6125L184.667 15.5262L184.909 13.2136H186.566V15.5262H188.723V17.0967H186.566V21.1351C186.566 22.1246 186.962 22.6193 187.756 22.6193C187.906 22.6193 188.061 22.6021 188.222 22.5676C188.383 22.5215 188.521 22.4755 188.637 22.4295L188.982 23.8965C188.752 23.977 188.487 24.046 188.188 24.1035C187.9 24.1726 187.59 24.2071 187.256 24.2071Z"
    fill="#E6EAF2"
  />
  <path
    fill-rule="evenodd"
    clip-rule="evenodd"
    d="M20.5 12.75C20.0858 12.75 19.75 13.0858 19.75 13.5C19.75 13.9122 20.0826 14.2468 20.4941 14.25C20.4961 14.25 20.4981 14.25 20.5 14.25C20.502 14.25 20.504 14.25 20.5059 14.25C20.9174 14.2468 21.25 13.9122 21.25 13.5C21.25 13.0858 20.9142 12.75 20.5 12.75ZM21.25 15.622C22.1239 15.3131 22.75 14.4797 22.75 13.5C22.75 12.2574 21.7426 11.25 20.5 11.25C19.2574 11.25 18.25 12.2574 18.25 13.5C18.25 14.4797 18.8761 15.3131 19.75 15.622V20.378C18.8761 20.6869 18.25 21.5203 18.25 22.5C18.25 23.7427 19.2574 24.75 20.5 24.75C21.7426 24.75 22.75 23.7427 22.75 22.5C22.75 21.5203 22.1239 20.6869 21.25 20.3781V15.622ZM20.5 21.75C20.0858 21.75 19.75 22.0858 19.75 22.5C19.75 22.9142 20.0858 23.25 20.5 23.25C20.9142 23.25 21.25 22.9142 21.25 22.5C21.25 22.0858 20.9142 21.75 20.5 21.75Z"
    fill="#FFD21E"
  />
  <path
    fill-rule="evenodd"
    clip-rule="evenodd"
    d="M27.0303 10.7197C27.3232 11.0126 27.3232 11.4874 27.0303 11.7803L26.0607 12.75H28C28.5967 12.75 29.169 12.9871 29.591 13.409C30.0129 13.831 30.25 14.4033 30.25 15V20.378C31.1239 20.6869 31.75 21.5203 31.75 22.5C31.75 23.7427 30.7427 24.75 29.5 24.75C28.2574 24.75 27.25 23.7427 27.25 22.5C27.25 21.5203 27.8761 20.687 28.75 20.3781V15C28.75 14.8011 28.671 14.6103 28.5303 14.4697C28.3896 14.329 28.1989 14.25 28 14.25H26.0607L27.0303 15.2197C27.3232 15.5126 27.3232 15.9874 27.0303 16.2803C26.7375 16.5732 26.2626 16.5732 25.9697 16.2803L23.7197 14.0303C23.6478 13.9584 23.5935 13.8755 23.5569 13.7871C23.5203 13.6987 23.5 13.6017 23.5 13.5C23.5 13.2929 23.5839 13.1054 23.7197 12.9697L25.9697 10.7197C26.2626 10.4268 26.7375 10.4268 27.0303 10.7197ZM28.75 22.5C28.75 22.0858 29.0859 21.75 29.5 21.75C29.9142 21.75 30.25 22.0858 30.25 22.5C30.25 22.9142 29.9142 23.25 29.5 23.25C29.0859 23.25 28.75 22.9142 28.75 22.5Z"
    fill="#FF9D00"
  />
  <defs>
    <linearGradient
      id="paint0_linear_149_10"
      x1="-1.04254e-07"
      y1="18"
      x2="72.674"
      y2="18"
      gradientUnits="userSpaceOnUse"
    >
      <stop stop-color="#F5F9FA" />
      <stop offset="1" stop-color="white" />
    </linearGradient>
    <linearGradient
      id="paint1_linear_149_10"
      x1="-1.04254e-07"
      y1="18"
      x2="85.5113"
      y2="18"
      gradientUnits="userSpaceOnUse"
    >
      <stop stop-color="#172033" />
      <stop offset="1" stop-color="#0B0F19" />
    </linearGradient>
  </defs>
</svg>
